<?xml version="1.0" encoding="UTF-8" standalone="no"?>
<svg
   xmlns:dc="http://purl.org/dc/elements/1.1/"
   xmlns:cc="http://creativecommons.org/ns#"
   xmlns:rdf="http://www.w3.org/1999/02/22-rdf-syntax-ns#"
   xmlns:svg="http://www.w3.org/2000/svg"
   xmlns="http://www.w3.org/2000/svg"
   xmlns:sodipodi="http://sodipodi.sourceforge.net/DTD/sodipodi-0.dtd"
   xmlns:inkscape="http://www.inkscape.org/namespaces/inkscape"
   inkscape:version="1.0 (4035a4fb49, 2020-05-01)"
   sodipodi:docname="logo.svg"
   id="svg42"
   version="1.1"
   width="250"
   viewBox="0 0 250 70"
   height="70">
  <sodipodi:namedview
     inkscape:current-layer="svg42"
     inkscape:window-maximized="1"
     inkscape:window-y="-6"
     inkscape:window-x="-6"
     inkscape:cy="256"
     inkscape:cx="256"
     inkscape:zoom="1.4355469"
     showgrid="false"
     id="namedview29"
     inkscape:window-height="1018"
     inkscape:window-width="1620"
     inkscape:pageshadow="2"
     inkscape:pageopacity="0"
     guidetolerance="10"
     gridtolerance="10"
     objecttolerance="10"
     borderopacity="1"
     bordercolor="#666666"
     pagecolor="#ffffff" />
  <metadata
     id="metadata48">
    <rdf:RDF>
      <cc:Work
         rdf:about="">
        <dc:format>image/svg+xml</dc:format>
        <dc:type
           rdf:resource="http://purl.org/dc/dcmitype/StillImage" />
        <dc:title></dc:title>
      </cc:Work>
    </rdf:RDF>
  </metadata>
  <defs
     id="defs46" />
  <g
     id="g181"
     transform="matrix(0.70002295,0,0,0.77551031,4.6268835,8.1563792)">
    <g
       id="Thinking_Face"
       data-name="Thinking Face"
       transform="matrix(0.14965991,0,0,0.13333339,2.0897751,0.69659864)">
      <g
         id="Flat">
        <path
           d="M 272,512 C 206.4,512 137.37,476.029 82.611,413.31 30.883,354.063 0,280.3 0,216 0,149.3 29.044,93.317 83.991,54.113 132.9,19.218 199.668,0 272,0 338.7,0 400.262,27.927 445.342,78.636 487.7,126.288 512,190.935 512,256 512,321.065 487.7,385.712 445.342,433.364 400.262,484.073 338.7,512 272,512 Z"
           fill="#ffcc80"
           id="path2" />
        <path
           d="M 479.751,128.123 C 473.372,301.443 330.879,440 156,440 a 326.3,326.3 0 0 1 -51.92,-4.16 C 154.81,484.563 214.712,512 272,512 338.7,512 400.262,484.073 445.342,433.364 487.7,385.712 512,321.065 512,256 A 272.481,272.481 0 0 0 479.751,128.123 Z"
           fill="#ffb74d"
           id="path4" />
        <path
           d="M 111.92,512 A 111.846,111.846 0 0 1 0,400.08 131.083,131.083 0 0 1 33.649,312.38 l 41.21,-45.79 A 32.035,32.035 0 0 1 98.63,256 h 0.03 a 31.98,31.98 0 0 1 28.59,46.29 l -0.141,0.27 -17.679,29.36 v -0.01 a 7.872,7.872 0 0 0 -1.14,4.06 8.215,8.215 0 0 0 2.279,5.61 7.774,7.774 0 0 0 5.741,2.42 h 136.83 a 26.948,26.948 0 0 1 19.04,8.02 27.836,27.836 0 0 1 8.34,18.81 c 0,0.34 0.01,0.67 0.01,0.91 a 29.108,29.108 0 0 1 -7.62,19.45 26.25,26.25 0 0 1 -19.27,8.81 h -48.69 v 18.97 A 92.952,92.952 0 0 1 111.92,512 Z"
           fill="#f5f5f5"
           id="path6" />
        <path
           d="M 88,472 A 143.31,143.31 0 0 1 11.842,450.223 111.822,111.822 0 0 0 111.92,512 92.952,92.952 0 0 0 204.95,418.97 v -6.949 A 143.806,143.806 0 0 1 88,472 Z"
           fill="#e5e5e5"
           id="path8" />
        <path
           d="m 360,148 a 24,24 0 0 1 -24,24 24,24 0 0 1 -24,-24 24,24 0 0 1 24,-24 24,24 0 0 1 24,24"
           style="fill:#616161"
           id="circle10" />
        <path
           d="m 336,140 a 8,8 0 0 1 -8,8 8,8 0 0 1 -8,-8 8,8 0 0 1 8,-8 8,8 0 0 1 8,8"
           style="fill:#ffffff"
           id="circle12" />
        <path
           d="m 200,128 a 24,24 0 0 1 -24,24 24,24 0 0 1 -24,-24 24,24 0 0 1 24,-24 24,24 0 0 1 24,24"
           style="fill:#616161"
           id="circle14" />
        <path
           d="m 176,120 a 8,8 0 0 1 -8,8 8,8 0 0 1 -8,-8 8,8 0 0 1 8,-8 8,8 0 0 1 8,8"
           style="fill:#ffffff"
           id="circle16" />
        <g
           fill="#cfcfcf"
           id="g24">
          <path
             d="m 204.95,400 v 16 h -36.34 a 8,8 0 0 1 0,-16 z"
             id="path18" />
          <path
             d="m 204.05,432 a 90.644,90.644 0 0 1 -3.73,16 h -41.16 a 8,8 0 1 1 0,-16 z"
             id="path20" />
          <path
             d="m 188.36,472 a 92.15,92.15 0 0 1 -10.66,12.75 c -1.12,1.12 -2.25,2.2 -3.42,3.25 h -36.07 a 8,8 0 0 1 0,-16 z"
             id="path22" />
        </g>
        <path
           d="m 128,92 a 8,8 0 0 1 -5.12,-14.15 c 5.68,-4.68 13.42,-8.16 23.67,-10.63 a 136.284,136.284 0 0 1 58.9,0 c 10.239,2.47 17.989,5.95 23.67,10.63 a 8.0023059,8.0023059 0 0 1 -10.24,12.3 c -3.41,-2.9 -9.811,-5.66 -17.14,-7.37 A 114.79,114.79 0 0 0 176.03,80 h -0.06 a 114.881,114.881 0 0 0 -25.72,2.78 c -7.32,1.71 -13.72,4.47 -17.13,7.37 A 8.027,8.027 0 0 1 128,92 Z"
           fill="#616161"
           id="path26" />
        <path
           d="m 288,112 a 8,8 0 0 1 0,-16 c 0.02,0 0.64,0 1.83,-0.01 1.09,-0.01 2.88,-0.04 5.2,-0.09 5.949,-0.14 11.94,-0.39 17.82,-0.73 12.94,-0.75 31.469,-2.34 46.28,-5.72 8.88,-1.94 16.82,-4.99 19.75,-7.6 a 8.0023059,8.0023059 0 0 1 10.24,12.3 c -7.16,5.79 -16.94,8.66 -26.45,10.9 a 262.091,262.091 0 0 1 -33.13,4.92 c -20.75,1.91 -39.41,2.02 -41.471,2.03 z"
           fill="#616161"
           id="path28" />
        <path
           d="m 264,256 h -48 a 8,8 0 0 1 0,-16 h 48 a 8,8 0 0 1 0,16 z"
           fill="#ef5350"
           id="path30" />
        <path
           d="m 351.915,130.057 c 0.051,0.641 0.085,1.288 0.085,1.943 a 23.983,23.983 0 0 1 -39.915,17.943 24,24 0 1 0 39.83,-19.886 z"
           fill="#424242"
           id="path32" />
        <path
           d="m 191.915,110.057 c 0.051,0.641 0.085,1.288 0.085,1.943 a 23.983,23.983 0 0 1 -39.915,17.943 24,24 0 1 0 39.83,-19.886 z"
           fill="#424242"
           id="path34" />
        <path
           d="m 128,176 a 24,24 0 0 1 -24,24 24,24 0 0 1 -24,-24 24,24 0 0 1 24,-24 24,24 0 0 1 24,24"
           style="fill:#ffe4c0"
           id="circle36" />
        <path
           d="m 432,176 a 24,24 0 0 1 -24,24 24,24 0 0 1 -24,-24 24,24 0 0 1 24,-24 24,24 0 0 1 24,24"
           style="fill:#ffe4c0"
           id="circle38" />
      </g>
    </g>
    <g
       transform="matrix(0.97730229,0,0,0.85502185,-154.53013,-44.552388)"
       id="g410">
      <path
         id="path30-5"
         style="font-style:normal;font-variant:normal;font-weight:normal;font-stretch:normal;font-size:50.8px;line-height:1.05;font-family:'Amatic SC';-inkscape-font-specification:'Amatic SC';letter-spacing:0.0608542px;white-space:pre;fill:#2b0000;fill-opacity:1;stroke:none;stroke-width:1.54111"
         d="m 357.91946,69.613395 -9.07438,0.06873 h -8.24963 c -1.42992,0 -2.52958,0.06835 -3.29954,0.205156 -0.71495,0.0912 -1.15534,0.20529 -1.32033,0.342098 -0.165,0.136805 -0.24701,0.387591 -0.24701,0.752409 0,0.319212 0.16455,0.57 0.49454,0.752409 0.38497,0.182406 0.79768,0.273367 1.23765,0.273367 h 9.32191 c 0.11,0 0.16485,2.462644 0.16485,7.387661 v 4.446241 l -0.0822,1.983343 c 0,2.416906 0.082,6.065134 0.24702,10.944551 l 0.16536,10.94455 v 6.088 6.088 c 0,0.50163 0.13739,0.93485 0.41238,1.29966 0.27499,0.31922 0.68717,0.47853 1.23713,0.47853 h 5.2e-4 c 0.38498,0 0.65976,-0.11409 0.82475,-0.3421 0.16505,-0.13681 0.27477,-0.31924 0.3297,-0.54725 0.0551,-0.27361 0.0827,-0.59275 0.0827,-0.95757 v -0.13643 l -0.0827,-5.06222 v -5.67717 -27.771947 -5.335076 l -0.0822,-3.967716 0.74259,-0.06821 h 3.62975 3.71243 c 1.04494,0 1.56735,-0.341747 1.56735,-1.025776 0,-0.41042 -0.13791,-0.706943 -0.4129,-0.889352 -0.21999,-0.182409 -0.65985,-0.273886 -1.31981,-0.273886 z m -114.57905,0.342098 c -1.50899,0 -2.26395,1.689603 -2.26395,5.06894 0,3.989499 0.11615,8.871029 0.3483,14.644068 0.17412,6.524001 0.26148,11.428359 0.26148,14.713829 l -0.17414,8.87078 c -0.17412,3.9895 -0.26149,6.97029 -0.26149,8.94157 0,0.65709 1.07411,0.98547 3.22151,0.98547 h 0.17415 c 0.40627,0 0.98649,-0.11725 1.74098,-0.35192 0.4643,-0.0939 1.04453,-0.21111 1.74098,-0.35191 1.85721,-0.6571 3.3661,-1.31437 4.52685,-1.97146 1.2188,-0.6571 2.17676,-1.36105 2.87321,-2.11202 0.7545,-0.75096 1.33472,-1.64271 1.74098,-2.67529 0.40627,-0.98563 0.66734,-2.04183 0.78342,-3.16828 0.17411,-1.17338 0.26148,-2.7224 0.26148,-4.64674 0,-3.14466 -0.63881,-5.84325 -1.91564,-8.096148 -1.2188,-2.25289 -3.36598,-4.623107 -6.44199,-7.110677 3.71442,-4.03643 5.57175,-7.932319 5.57175,-11.68714 0,-3.332406 -1.0741,-6.007651 -3.2215,-8.025866 -2.08937,-2.018218 -5.07785,-3.027206 -8.96638,-3.027206 z m 2.69854,2.393651 c 1.85721,0 3.51103,0.727821 4.96197,2.182812 1.50899,1.454994 2.26395,3.003495 2.26395,4.646229 0,1.220317 -0.20352,2.581542 -0.60979,4.083473 -0.40626,1.454992 -0.98648,2.862908 -1.74098,4.224031 -0.75449,1.454994 -1.71193,2.628429 -2.87269,3.520199 -1.16075,0.89177 -2.37979,1.337903 -3.65662,1.337903 l -0.26097,-0.07028 -0.17415,-8.448579 c -0.11607,-2.48757 -0.17415,-5.303917 -0.17415,-8.44858 0,-2.018215 0.75445,-3.027206 2.26343,-3.027206 z m 254.39377,10.429338 c -0.47043,0 -0.81245,0.01957 -1.02629,0.0584 -2.01001,0.194111 -3.50705,0.873453 -4.49069,2.038117 -0.94084,1.125844 -1.56099,2.445901 -1.86034,3.959966 -0.2566,1.475242 -0.49157,3.668813 -0.70538,6.580476 l -0.385,3.668511 c -0.17105,1.708178 -0.25633,3.222408 -0.25633,4.542358 0,2.17404 0.25628,5.22155 0.76947,9.14259 0.34213,2.67873 0.72731,4.63898 1.15498,5.88129 0.47043,1.20349 1.17581,2.0188 2.11667,2.44585 0.94086,0.42704 2.39477,0.64079 4.362,0.64079 2.18106,0 4.36221,-1.00949 6.54328,-3.02824 0,-1.63053 -0.0214,-3.12519 -0.0641,-4.48397 -0.0855,-1.31995 -0.12816,-2.79503 -0.12816,-4.42557 0,-0.38822 0.10708,-1.12628 0.32091,-2.2133 0.2566,-0.93172 0.385,-1.6497 0.385,-2.15438 0,-0.27176 -0.25678,-0.4855 -0.76999,-0.64079 -0.47043,-0.15529 -1.11186,-0.29074 -1.92442,-0.40721 l -1.41129,-0.0584 c -0.47043,-0.0388 -1.06926,-0.0584 -1.79628,-0.0584 -1.02637,0 -1.53943,0.33014 -1.53943,0.99012 0,0.46586 0.51306,0.69866 1.53943,0.69866 0.25659,0 0.49207,-0.0196 0.70591,-0.0584 h 0.51315 c 1.06916,0 1.81716,0.19417 2.24481,0.5824 v 3.2029 c 0,1.20348 -0.0639,2.67908 -0.19222,4.42608 -0.0855,1.3976 -0.42757,2.75628 -1.02629,4.07624 -0.51322,1.24231 -1.39012,1.86345 -2.63033,1.86345 -1.49683,0 -2.67264,-0.33014 -3.52796,-0.99012 -0.76977,-0.62116 -1.30468,-1.39784 -1.60403,-2.32957 -0.29938,-0.97056 -0.4917,-2.13507 -0.57724,-3.49385 -0.0855,-1.51406 -0.19259,-2.69815 -0.32089,-3.55223 -0.0855,-0.89291 -0.27787,-1.55268 -0.57724,-1.97973 -0.1283,-0.93172 -0.19222,-2.34861 -0.19222,-4.2509 l 0.064,-4.483962 c 0.0855,-1.824641 0.29919,-3.960013 0.64133,-6.405808 0.25659,-1.863466 0.8341,-3.766037 1.73217,-5.707147 0.38492,-0.815266 0.85535,-1.436407 1.41129,-1.863453 0.59872,-0.427043 1.26151,-0.64027 1.9885,-0.64027 l 0.57724,0.05788 0.64183,0.0584 c 0.29935,0 0.57692,-0.07777 0.83354,-0.23306 0.29935,-0.194112 0.44905,-0.40734 0.44905,-0.640274 0,-0.543509 -0.66275,-0.815453 -1.9885,-0.815453 z m -101.87337,1.717209 c -0.76979,0.558607 -1.15445,1.750187 -1.15445,3.574976 v 0.726569 c 0,1.079977 -0.0645,2.718269 -0.19275,4.915464 -0.1283,2.23443 -0.19224,3.891812 -0.19224,4.971788 0,1.787542 0.0639,4.468862 0.19224,8.043952 0.12829,3.57509 0.19275,6.25641 0.19275,8.04395 0,0.67033 -0.0431,1.28469 -0.12867,1.8433 l -0.12816,1.78749 c 0,2.01099 0.44912,3.01635 1.34721,3.01635 0.34212,0 0.62022,-0.11141 0.83405,-0.33486 0.2566,-0.22345 0.38448,-0.48446 0.38448,-0.78238 0,-0.48413 -0.0853,-0.87513 -0.25632,-1.17305 v -5.02709 c -0.29936,-0.63309 -0.44907,-4.05927 -0.44907,-10.27844 h 0.19224 l -0.12816,-1.78749 c -0.0855,-0.59585 -0.12816,-1.30357 -0.12816,-2.122867 0,-0.484126 0.0213,-0.930841 0.0641,-1.340485 l 0.0641,-1.341003 -0.0641,-2.17868 c -0.0428,-0.63309 -0.0641,-1.377439 -0.0641,-2.233972 0,-1.601343 0.17102,-2.904861 0.51315,-3.910357 0.98362,0.856533 3.39971,6.461088 7.24866,16.813964 l 0.51314,1.34048 c 0.72703,1.82479 1.13352,2.77445 1.21905,2.84893 l 1.15445,2.90473 c 1.11192,2.53236 1.83914,4.6741 2.18126,6.42441 l -0.0641,0.16743 c 0.12834,0.22345 0.21358,0.48394 0.25632,0.78187 0.12829,0.44689 0.25669,0.78218 0.38499,1.00562 0.17106,0.22345 0.42785,0.33538 0.76998,0.33538 l 0.6413,-0.16795 0.0641,0.0558 v -0.0558 l 1.09089,-0.22324 c 0.42766,-0.70758 0.87678,-5.10197 1.3472,-13.18317 0.47043,-8.081205 0.70539,-13.890545 0.70539,-17.428397 l 0.32091,-0.447 v -3.742926 c 0,-0.409643 -0.14971,-0.782079 -0.44907,-1.117242 -0.25659,-0.335167 -0.57732,-0.502812 -0.96222,-0.502812 -0.59872,0 -0.89813,0.391004 -0.89813,1.173054 0,0.297926 0.0213,0.540369 0.0641,0.726572 l 0.0641,0.670243 c 0,12.028699 -0.49174,22.176728 -1.47536,30.444138 l -0.12815,0.16743 c -1.11192,-1.71307 -2.07409,-4.15245 -2.88665,-7.3179 -0.25659,-1.00549 -0.59915,-2.15994 -1.02681,-3.46335 -0.59873,-1.63859 -2.11658,-4.9714 -4.55424,-9.998878 -2.3949,-4.766791 -3.93458,-8.472037 -4.61884,-11.116117 l -0.0641,-0.05581 v -0.223758 l -0.12816,-0.334864 c 0,-0.186201 -0.0858,-0.353849 -0.25683,-0.502812 -0.21383,-0.186203 -0.40617,-0.29814 -0.57723,-0.335378 l -0.64182,0.11162 z m -28.41118,0.690914 c -0.29937,0 -0.55615,0.09029 -0.76998,0.270267 -0.21383,0.143981 -0.32091,0.324046 -0.32091,0.54002 0,1.655794 0.12839,4.139112 0.38499,7.450706 0.29936,3.059626 0.44907,5.54346 0.44907,7.451222 0,0.64793 -0.19234,1.11609 -0.57723,1.40405 -0.34212,0.25197 -0.91963,0.37776 -1.73219,0.37776 h -0.25632 c -3.25022,0 -4.87567,-0.21608 -4.87567,-0.64802 0,-2.375715 0.0431,-4.553183 0.12868,-6.532941 0.0428,-1.979755 0.0641,-4.193754 0.0641,-6.641454 0,-2.087745 -0.4278,-3.131592 -1.28312,-3.131592 -0.29937,0 -0.55615,0.108037 -0.76998,0.324011 -0.21383,0.215974 -0.32039,0.449797 -0.32039,0.701765 l 0.12815,4.211629 0.12816,2.105816 c 0.17107,2.483694 0.25683,4.589656 0.25683,6.317443 0,2.015753 -0.10707,3.203133 -0.32091,3.563093 0.1283,0.25197 0.19276,2.01607 0.19276,5.29166 l -0.0646,4.9134 c -0.0428,1.47582 -0.0641,3.13136 -0.0641,4.96714 0,2.15973 0.47043,3.23959 1.41128,3.23959 0.34213,0 0.59892,-0.12578 0.76998,-0.37775 0.17107,-0.28796 0.25632,-0.62983 0.25632,-1.02578 0,-1.00788 -0.0639,-2.50162 -0.19224,-4.48138 -0.1283,-2.01575 -0.19275,-3.52776 -0.19275,-4.53564 l -0.12816,-0.21601 c 0,-1.25984 0.0213,-2.39346 0.0641,-3.40134 0.0427,-1.00788 0.0641,-2.14201 0.0641,-3.40186 l 0.7059,-0.21601 c 0.59873,0 1.26149,0.0903 1.98851,0.27027 1.06915,0.17998 1.77505,0.26975 2.11718,0.26975 0.47043,0 0.89772,-0.0538 1.28261,-0.16174 l 0.96221,0.216 c 0.17107,0.68392 0.25684,1.34938 0.25684,1.9973 l -0.25684,0.48627 0.19276,0.21601 c 0,2.98763 0.10708,7.81073 0.32091,14.46992 1.28298,0 1.92443,0.18006 1.92443,0.54002 l 0.44907,-0.59377 c -0.29937,-2.87964 -0.44907,-6.44334 -0.44907,-10.69082 0,-2.80765 -0.1284,-7.01905 -0.38499,-12.634368 -0.2566,-5.579316 -0.38499,-9.77297 -0.38499,-12.580625 -0.0855,-0.072 -0.27786,-0.125757 -0.57723,-0.161748 z m 58.44139,0.615982 c -0.55597,0 -0.96192,0.197604 -1.21854,0.593246 v 7.499284 c 0,1.438693 -0.0858,3.164843 -0.25683,5.179012 -0.21383,1.978201 -0.32038,3.722641 -0.32038,5.233271 0,0.57548 -0.10708,1.70881 -0.32091,3.39928 -0.21384,1.69046 -0.32091,2.82328 -0.32091,3.39875 v 10.14254 c 0,0.46757 0.0858,0.77339 0.25682,0.91725 0.21384,0.14387 0.59849,0.21601 1.15446,0.21601 0.25659,0 0.49207,-0.0721 0.70591,-0.21601 0.21384,-0.1079 0.32038,-0.25166 0.32038,-0.4315 0,-0.35967 -0.0639,-0.86308 -0.19224,-1.5105 -0.1283,-0.71934 -0.19222,-1.24105 -0.19222,-1.56476 v -6.90552 l 0.12816,-1.94252 c 0.0855,-0.57547 0.12814,-1.22265 0.12814,-1.942 0,-0.71934 0.1284,-1.42088 0.38499,-2.10426 0.21384,-0.71935 0.42746,-1.31268 0.6413,-1.78025 0.25659,-0.50355 0.62048,-1.13295 1.0909,-1.88826 l 0.96221,-1.72651 0.19225,0.21601 c 0.0855,1.40272 0.61989,3.84819 1.60351,7.33702 0.98361,3.48883 2.13863,6.72626 3.4644,9.71155 1.41126,3.23706 2.63022,4.85551 3.65662,4.85551 0.29935,0 0.55563,-0.0721 0.76946,-0.216 0.21381,-0.14387 0.32091,-0.34147 0.32091,-0.59325 0,-0.35967 -0.1071,-0.70156 -0.32091,-1.02526 -0.17108,-0.35968 -0.47048,-0.79147 -0.89815,-1.29501 -0.0855,-0.0719 -0.36312,-0.37723 -0.83355,-0.91674 -1.02637,-1.69046 -2.26663,-4.712 -3.72067,-9.06405 -1.45407,-4.35204 -2.18128,-7.31921 -2.18128,-8.90178 0,-0.647408 0.0213,-1.222964 0.0641,-1.726506 l 0.0641,-1.72651 c 1.79618,-3.23706 4.06308,-6.563889 6.80011,-9.980787 0,-0.611444 -0.5562,-0.917254 -1.66812,-0.917254 -0.29937,0 -1.90299,2.409909 -4.81107,7.229533 -2.90809,4.855588 -4.57618,7.337124 -5.00383,7.445024 0,-2.086106 0.0431,-3.992085 0.12867,-5.718515 l 0.12816,-5.664771 c 0,-1.079021 0.171,-1.942611 0.51313,-2.590022 0,-0.28774 -0.1284,-0.521415 -0.38499,-0.701249 -0.21381,-0.215805 -0.49191,-0.323496 -0.83405,-0.323496 z m -160.30287,0.205155 c -0.64149,0 -1.11192,0.125238 -1.41128,0.376206 -0.29936,0.215114 -0.44907,0.591857 -0.44907,1.129647 0,1.183137 0.0426,2.258655 0.12815,3.226675 l 0.12868,3.226676 c 0,2.222865 -0.0858,4.92955 -0.25683,8.120434 -0.1283,3.58526 -0.19224,6.27458 -0.19224,8.06721 l 0.12816,3.54914 c 0.1283,1.54166 0.19223,2.72504 0.19223,3.54965 0,0.71705 -0.17102,1.45161 -0.51314,2.20452 l 0.25683,0.21549 c 0,0.25097 -0.0213,0.46617 -0.0641,0.64544 v 0.69866 c 0.0855,0.7529 0.51333,1.12965 1.28313,1.12965 h 5.26014 c 1.88171,0 2.82257,-0.32255 2.82257,-0.9679 0,-0.46608 -0.62013,-0.69919 -1.86036,-0.69919 -0.47042,0 -0.89823,0.0179 -1.28312,0.0538 l -1.15445,0.0537 c -1.02639,0 -1.73229,-0.12575 -2.11719,-0.37672 -0.38492,-0.28682 -0.59857,-0.84247 -0.6413,-1.66708 -0.1283,-1.46996 -0.19275,-2.90381 -0.19275,-4.30206 l 0.0641,-3.81837 c 0.0428,-1.14729 0.0646,-2.42012 0.0646,-3.81837 0,-2.22287 -0.0431,-3.63883 -0.12867,-4.24832 v -0.16175 l 0.32091,-0.26872 h 0.32091 l 2.05259,0.26872 c 0.34212,0.28682 0.83386,0.43046 1.47536,0.43046 0.42766,0 0.74839,-0.12575 0.96221,-0.37672 0.21384,-0.28682 0.32091,-0.62726 0.32091,-1.02164 0,-0.64535 -0.83377,-0.9679 -2.50165,-0.9679 -0.3849,0 -0.74877,0.0179 -1.09089,0.0538 l -1.0263,0.0537 c -0.59872,0 -0.89813,-0.501977 -0.89813,-1.505851 0,-1.541664 0.0213,-2.939735 0.0641,-4.194577 0.0855,-1.218991 0.12867,-2.599169 0.12867,-4.140833 0,-1.218991 -0.0218,-1.989846 -0.0646,-2.312519 l 0.32091,-0.322979 c 1.02639,0 2.75841,0.340444 5.19607,1.021643 0.81255,-0.358526 1.21905,-0.716859 1.21905,-1.075386 0,-0.322675 -0.4065,-0.591555 -1.21905,-0.806669 -0.76979,-0.215117 -1.68934,-0.37665 -2.75849,-0.484209 -1.15468,-0.107556 -1.77482,-0.17912 -1.86035,-0.214974 -0.25659,-0.215117 -0.59862,-0.322461 -1.02629,-0.322461 z m 196.40609,0 c -0.76978,0.535805 -1.15446,1.678954 -1.15446,3.429249 v 0.696082 c 0,1.035888 -0.0639,2.607976 -0.19222,4.715473 -0.12829,2.143217 -0.19275,3.732813 -0.19275,4.768701 0,1.714573 0.0645,4.286143 0.19275,7.715293 0.1283,3.42915 0.19222,6.00123 0.19222,7.71581 0,0.64296 -0.0426,1.23204 -0.12814,1.76785 l -0.12869,1.71462 c 0,1.9289 0.44913,2.89336 1.34721,2.89336 0.34213,0 0.62023,-0.1071 0.83407,-0.32142 0.25659,-0.21432 0.38499,-0.46459 0.38499,-0.75035 0,-0.46436 -0.0858,-0.83923 -0.25683,-1.12499 v -4.82193 c -0.29937,-0.60724 -0.44907,-3.89354 -0.44907,-9.85883 h 0.19274 l -0.12866,-1.71462 c -0.0855,-0.57153 -0.12817,-1.25021 -0.12817,-2.03605 0,-0.46436 0.0214,-0.893305 0.0641,-1.28623 l 0.0641,-1.285708 -0.0641,-2.089795 c -0.0427,-0.607246 -0.0641,-1.321454 -0.0641,-2.143022 0,-1.535973 0.17103,-2.786227 0.51316,-3.750675 0.98362,0.821565 3.40022,6.197457 7.24916,16.1277 l 0.51314,1.28571 c 0.72702,1.75029 1.13299,2.6612 1.21853,2.73265 l 1.15499,2.78639 c 1.11191,2.42898 1.83862,4.48253 2.18072,6.16138 l -0.0641,0.16123 c 0.12832,0.21432 0.21407,0.46406 0.25683,0.74982 0.12829,0.42865 0.25667,0.74996 0.38497,0.96429 0.17108,0.21432 0.42732,0.32194 0.76946,0.32194 l 0.64182,-0.16071 0.0641,0.0532 v -0.0532 l 1.09037,-0.21446 c 0.42765,-0.67869 0.87678,-4.89392 1.34721,-12.64522 0.47042,-7.7513 0.7059,-13.323382 0.7059,-16.716809 l 0.32039,-0.428916 v -3.589962 c 0,-0.392922 -0.1497,-0.749768 -0.44908,-1.071253 -0.25659,-0.321482 -0.57732,-0.482656 -0.96221,-0.482656 -0.59873,0 -0.89813,0.375386 -0.89813,1.125511 0,0.285764 0.0213,0.517999 0.0641,0.696598 l 0.0641,0.642856 c 0,11.537651 -0.49176,21.271411 -1.47537,29.201321 l -0.12817,0.16071 c -1.11191,-1.64313 -2.07409,-3.98299 -2.88663,-7.01921 -0.25662,-0.96445 -0.59864,-2.07155 -1.02629,-3.32176 -0.59873,-1.57169 -2.11712,-4.76891 -4.55478,-9.591145 -2.3949,-4.572198 -3.93459,-8.126259 -4.61883,-10.662399 l -0.0641,-0.05323 v -0.214458 l -0.12816,-0.321426 c 0,-0.178605 -0.0858,-0.339262 -0.25683,-0.482142 -0.21384,-0.178602 -0.40617,-0.286224 -0.57722,-0.321945 l -0.64132,0.107487 z m -84.70645,0.75551 c -0.2566,0 -0.57732,0.07022 -0.96222,0.209807 -0.38489,0.139581 -0.57722,0.278998 -0.57722,0.418578 0,0.593225 0.40649,0.889868 1.21905,0.889868 0.29936,0 0.57694,-0.0173 0.83354,-0.05219 l 0.7059,-0.05271 c 0.89808,0 1.53952,0.05241 1.92442,0.157097 0.21383,1.395822 0.32092,3.419916 0.32092,6.071981 l -0.12868,6.071977 c -0.12829,2.72186 -0.19224,4.76325 -0.19224,6.12418 l 0.12816,3.82095 0.12868,1.93683 c 0.1283,1.67499 0.19223,3.57645 0.19223,5.70508 l -0.0641,0.62839 -0.12867,0.47077 -0.25632,0.2098 h -1.86035 l -0.32091,0.26148 c -0.34213,0.17448 -0.51314,0.38361 -0.51314,0.62787 0.2566,0.34896 0.85542,0.52349 1.79627,0.52349 h 0.51315 c 0.1283,-0.0349 0.29932,-0.0522 0.51314,-0.0522 0.17107,0.34896 0.74858,0.52349 1.7322,0.52349 0.2566,0 0.64126,-0.10483 1.15445,-0.3142 0.51319,-0.17448 0.89837,-0.26148 1.15497,-0.26148 0.38489,0 0.74824,0.0173 1.09037,0.0522 0.29936,0.0698 0.6414,0.10491 1.02629,0.10491 0.42766,0 0.7697,-0.0875 1.0263,-0.262 0.25659,-0.20938 0.38499,-0.47091 0.38499,-0.78497 0,-0.48854 -0.62014,-0.73277 -1.86036,-0.73277 h -0.96221 c -0.25659,0.0349 -0.57731,0.0522 -0.96221,0.0522 -0.94086,0 -1.41129,-0.17452 -1.41129,-0.52348 l 0.0641,-0.10439 c -0.1283,-0.17447 -0.19223,-0.66346 -0.19223,-1.46605 0,-0.38386 0.0213,-0.6978 0.0641,-0.94207 v -0.68058 c 0,-1.29113 -0.0639,-3.21041 -0.19223,-5.75778 -0.17107,-2.23332 -0.25683,-4.13478 -0.25683,-5.70508 l 0.12867,-6.229074 c 0.0427,-1.849467 0.0641,-3.925454 0.0641,-6.228562 0,-1.535403 -0.0645,-2.460448 -0.19275,-2.774508 l 0.32091,-0.157096 c 0.94085,0 1.56099,0.10482 1.86035,0.314192 l 1.47536,-0.104386 c 0.1283,-0.209372 0.19223,-0.349305 0.19223,-0.419094 0,-0.383853 -0.38465,-0.680495 -1.15445,-0.889868 -0.98362,-0.279167 -1.9671,-0.43588 -2.95072,-0.470773 -1.62511,-0.139584 -3.25056,-0.209807 -4.87567,-0.209807 z m -95.20969,5.16e-4 c -0.64149,0 -1.11192,0.122735 -1.41129,0.368453 -0.29936,0.210617 -0.44906,0.579337 -0.44906,1.105877 0,1.158388 0.0431,2.211207 0.12867,3.158979 l 0.12816,3.159498 c 0,2.176365 -0.0858,4.826281 -0.25683,7.950425 -0.12831,3.51026 -0.19224,6.14308 -0.19224,7.89822 l 0.12816,3.47524 c 0.1283,1.50941 0.19275,2.66788 0.19275,3.47524 0,0.70205 -0.17153,1.42137 -0.51366,2.15852 l 0.25683,0.21084 c 0,0.24572 -0.0213,0.45649 -0.0641,0.63201 v 0.68419 c 0.0855,0.73716 0.51334,1.10588 1.28313,1.10588 h 5.26014 c 1.88171,0 2.82257,-0.3159 2.82257,-0.94775 0,-0.45633 -0.62014,-0.68471 -1.86036,-0.68471 -0.47042,0 -0.89823,0.0176 -1.28312,0.0527 l -1.15445,0.0527 c -1.02639,0 -1.73229,-0.12274 -2.11719,-0.36845 -0.38492,-0.28083 -0.59857,-0.8251 -0.6413,-1.63246 -0.1283,-1.43921 -0.19275,-2.84314 -0.19275,-4.21215 l 0.0641,-3.73879 c 0.0427,-1.12328 0.0641,-2.36927 0.0641,-3.73827 0,-2.17637 -0.0426,-3.56269 -0.12815,-4.15944 v -0.15813 l 0.32091,-0.26303 h 0.32091 l 2.05259,0.26303 c 0.34212,0.28083 0.83386,0.42117 1.47536,0.42117 0.42766,0 0.74839,-0.12274 0.96221,-0.36846 0.21384,-0.28082 0.32091,-0.61432 0.32091,-1.00045 0,-0.63185 -0.83429,-0.94775 -2.50217,-0.94775 -0.38489,0 -0.74825,0.0176 -1.09037,0.0527 l -1.0263,0.0527 c -0.59872,0 -0.89813,-0.49145 -0.89813,-1.474327 0,-1.509414 0.0213,-2.878648 0.0641,-4.107241 0.0855,-1.193493 0.12867,-2.544601 0.12867,-4.054017 0,-1.193491 -0.0219,-1.948538 -0.0646,-2.264461 l 0.32091,-0.315743 c 1.02639,0 2.7584,0.333505 5.19607,1.000456 0.81255,-0.351028 1.21905,-0.702141 1.21905,-1.053166 0,-0.315926 -0.4065,-0.579001 -1.21905,-0.789617 -0.76979,-0.210617 -1.68933,-0.368565 -2.75849,-0.473872 -1.15468,-0.105312 -1.77482,-0.175741 -1.86035,-0.210841 -0.25659,-0.210616 -0.59862,-0.315743 -1.02629,-0.315743 z m 16.29771,0 c -0.76979,0.524404 -1.15445,1.642822 -1.15445,3.355869 v 0.681612 c 0,1.013843 -0.0645,2.552057 -0.19275,4.614706 -0.12831,2.097609 -0.19224,3.65357 -0.19224,4.667415 0,1.67809 0.0639,4.1953 0.19224,7.55148 0.1283,3.35617 0.19275,5.87338 0.19275,7.55147 0,0.62928 -0.0431,1.20573 -0.12868,1.73013 l -0.12815,1.67845 c 0,1.88785 0.44911,2.83187 1.3472,2.83187 0.34213,0 0.62023,-0.10495 0.83406,-0.31471 0.25659,-0.20976 0.38499,-0.45464 0.38499,-0.73432 0,-0.45449 -0.0858,-0.82155 -0.25683,-1.10123 v -4.71961 c -0.29937,-0.59432 -0.44907,-3.81068 -0.44907,-9.64902 h 0.19223 l -0.12815,-1.67793 c -0.0855,-0.55937 -0.12816,-1.22352 -0.12816,-1.99265 0,-0.45448 0.0213,-0.87427 0.0641,-1.258833 l 0.0641,-1.258321 -0.0641,-2.045354 c -0.0428,-0.594323 -0.0641,-1.293463 -0.0641,-2.097548 0,-1.503285 0.17101,-2.727168 0.51315,-3.671093 0.98362,0.804084 3.3997,6.065644 7.24865,15.784569 l 0.51315,1.25883 c 0.72702,1.71305 1.13351,2.60434 1.21904,2.67426 l 1.15497,2.72696 c 1.11192,2.3773 1.83862,4.38752 2.18075,6.03064 l -0.0641,0.1571 c 0.12833,0.20976 0.21358,0.45464 0.25631,0.73432 0.1283,0.41952 0.25669,0.73436 0.38499,0.94413 0.17107,0.20976 0.42786,0.31471 0.76998,0.31471 l 0.64182,-0.15761 0.0641,0.0527 v -0.0527 l 1.09038,-0.20981 c 0.42766,-0.66424 0.87677,-4.78963 1.3472,-12.37599 0.47043,-7.58635 0.70538,-13.040057 0.70538,-16.361271 l 0.32091,-0.419613 v -3.513479 c 0,-0.384564 -0.14971,-0.733875 -0.44907,-1.048515 -0.25659,-0.314642 -0.57731,-0.471807 -0.96221,-0.471807 -0.59872,0 -0.89814,0.367061 -0.89814,1.101225 0,0.279683 0.0214,0.506812 0.0641,0.681611 l 0.0641,0.62942 c 0,11.292129 -0.49174,20.818499 -1.47536,28.579649 l -0.12816,0.1571 c -1.11192,-1.60817 -2.07409,-3.89774 -2.88664,-6.86935 -0.2566,-0.94393 -0.59915,-2.02788 -1.02681,-3.25148 -0.59873,-1.53825 -2.11658,-4.66689 -4.55425,-9.386509 -2.3949,-4.4749 -3.93458,-7.953367 -4.61884,-10.435537 l -0.0641,-0.05271 v -0.209807 l -0.12815,-0.314711 c 0,-0.1748 -0.0858,-0.331965 -0.25684,-0.471805 -0.21383,-0.1748 -0.40616,-0.279749 -0.57722,-0.314709 l -0.64131,0.104902 z m 145.04592,0.75551 c -0.25659,0 -0.57732,0.06863 -0.96221,0.205155 -0.38489,0.136525 -0.57721,0.272754 -0.57721,0.409279 0,0.580223 0.40597,0.87023 1.21851,0.87023 0.29938,0 0.57745,-0.01703 0.83407,-0.05116 l 0.70538,-0.05116 c 0.89808,0 1.53953,0.0516 1.92442,0.153996 0.21384,1.365234 0.32091,3.344714 0.32091,5.938655 l -0.12816,5.938657 c -0.1283,2.6622 -0.19275,4.65871 -0.19275,5.98981 l 0.12867,3.73724 0.12816,1.89446 c 0.1283,1.63828 0.19225,3.49856 0.19225,5.58054 l -0.0641,0.61443 -0.12817,0.46044 -0.2563,0.20515 h -1.86036 l -0.32092,0.2558 c -0.3421,0.17066 -0.51313,0.37552 -0.51313,0.61444 0.25659,0.3413 0.85542,0.51159 1.79626,0.51159 h 0.51316 c 0.12829,-0.0341 0.29932,-0.0512 0.51313,-0.0512 0.17108,0.34131 0.74805,0.51212 1.7317,0.51212 0.25659,0 0.64177,-0.10218 1.15496,-0.30696 0.51318,-0.17066 0.89786,-0.25632 1.15445,-0.25632 0.38489,0 0.74877,0.017 1.09088,0.0512 0.29937,0.0683 0.6414,0.10284 1.02629,0.10284 0.42767,0 0.7697,-0.0857 1.02629,-0.25632 0.25662,-0.20478 0.385,-0.46073 0.385,-0.76791 0,-0.47783 -0.62013,-0.71675 -1.86034,-0.71675 h -0.96221 c -0.25662,0.0341 -0.57735,0.0512 -0.96224,0.0512 -0.94083,0 -1.41128,-0.17081 -1.41128,-0.51211 l 0.0641,-0.10232 c -0.1283,-0.17066 -0.19275,-0.6485 -0.19275,-1.43351 0,-0.37544 0.0218,-0.68247 0.0646,-0.92139 v -0.66559 c 0,-1.26284 -0.0645,-3.14015 -0.19278,-5.6317 -0.17105,-2.18437 -0.2563,-4.04413 -0.2563,-5.58002 l 0.12817,-6.092649 c 0.0427,-1.808935 0.0641,-3.839501 0.0641,-6.092135 0,-1.501756 -0.064,-2.406353 -0.19225,-2.713529 l 0.32039,-0.15348 c 0.94085,0 1.56099,0.102172 1.86036,0.306959 l 1.47537,-0.102319 c 0.1283,-0.204785 0.19275,-0.341017 0.19275,-0.409279 0,-0.375439 -0.38518,-0.665962 -1.15499,-0.870746 -0.98361,-0.273053 -1.96709,-0.42631 -2.95071,-0.460439 -1.6251,-0.136522 -3.25006,-0.205155 -4.87516,-0.205155 z m -197.73056,7.358724 c 4.99126,1.689671 7.48688,6.735648 7.48688,15.137058 0,1.83048 -0.49337,3.54342 -1.48001,5.13922 -0.92861,1.5958 -2.23449,2.88648 -3.91759,3.87212 -1.62506,0.9387 -3.42432,1.40818 -5.3976,1.40818 l -0.26149,-0.0708 h -0.26096 c 0,-8.82383 -0.14493,-17.0607 -0.43512,-24.711147 0.34823,0 1.0153,-0.140587 2.00195,-0.422198 1.04468,-0.234675 1.79964,-0.352433 2.26394,-0.352433 z m 119.64128,7.046598 v 0.10801 h 0.12815 z" />
    </g>
  </g>
</svg>
